<?xml version="1.0" standalone="no"?>
<!DOCTYPE svg PUBLIC "-//W3C//DTD SVG 20010904//EN"
 "http://www.w3.org/TR/2001/REC-SVG-20010904/DTD/svg10.dtd">
<svg version="1.0" xmlns="http://www.w3.org/2000/svg"
 width="277.000000pt" height="259.000000pt" viewBox="0 0 277.000000 259.000000"
 preserveAspectRatio="xMidYMid meet">

<g transform="translate(0.000000,259.000000) scale(0.100000,-0.100000)"
fill="#000000" stroke="none">
<path d="M2455 2534 c-16 -9 -227 -212 -467 -452 l-438 -437 -407 407 c-277
277 -420 412 -445 423 -30 12 -85 15 -293 15 -275 0 -299 -4 -327 -53 -10 -17
-14 -247 -16 -1102 -2 -594 0 -1099 3 -1123 4 -27 17 -55 35 -75 l28 -32 234
-6 c256 -7 282 -3 315 47 17 26 18 74 23 786 l5 758 255 -256 c140 -140 267
-262 282 -270 36 -19 88 -18 118 2 14 9 260 251 548 538 l522 521 0 -1031 c0
-567 3 -1045 6 -1063 10 -49 49 -81 99 -81 55 0 92 34 100 93 3 23 5 561 3
1195 l-3 1154 -33 29 c-38 34 -97 39 -147 13z m-1447 -647 l392 -392 -50 -50
-50 -50 -443 443 -442 442 100 0 100 0 393 -393z m-518 -779 l0 -798 -105 0
-105 0 0 902 0 903 105 -105 105 -105 0 -797z"/>
</g>
</svg>
